<svg width="38" height="38" fill="none" xmlns="http://www.w3.org/2000/svg"><path fill-rule="evenodd" clip-rule="evenodd" d="M19 38a19 19 0 100-38 19 19 0 000 38z" fill="#000"/><path d="M14.8 21.33c.7 0 1.41.3 2.2.92.97.77 1.62 1.14 1.98 1.14.54 0 .8-.3.8-.85 0-.3-.15-.55-.47-.77-.18-.1-1.08-.48-2.78-1.06-2.73-1-4.1-2.8-4.1-5.47 0-2.02.72-3.6 2.16-4.74A7.5 7.5 0 0119.31 9c1.62 0 3.02.4 4.2 1.17 1.2.78 1.8 1.8 1.8 3.05 0 .73-.21 1.36-.68 1.87-.47.52-1.04.74-1.76.74-.76 0-1.58-.37-2.52-1.1-.58-.45-1-.7-1.3-.7-.5 0-.75.25-.75.73s.61.92 1.87 1.29c1.73.55 3.02 1.2 3.96 2.01A5.47 5.47 0 0126 22.5c0 2.1-.68 3.71-2.09 4.89-1.3 1.1-2.98 1.61-5.07 1.61a7.82 7.82 0 01-5.18-1.69C12.58 26.4 12 25.37 12 24.16c0-.81.25-1.47.8-2.02.57-.52 1.22-.81 2-.81z" fill="#fff"/></svg>